<svg xmlns="http://www.w3.org/2000/svg" width="1024" height="1024" viewBox="0 0 1024 1024"><defs><linearGradient id="gradBlue" x1="57.316" x2="3786.725" y1="816.077" y2="182.077" gradientUnits="userSpaceOnUse"><stop offset="0%" stop-color="#10b981"/><stop offset="50%" stop-color="#06b6d4"/><stop offset="100%" stop-color="#3b82f6"/></linearGradient><mask id="blueMask"><rect width="100%" height="100%" fill="#fff"/><path/></mask></defs><path fill="url(#gradBlue)" stroke="url(#gradBlue)" stroke-miterlimit="1000" stroke-width="1.5" d="M269.896 804.271c-89.948 4.77-163.875-48.105-184.8-135.518C62 572.271 123.624 477.751 217.181 454.623c13.465-3.329 27.905-2.716 43.574-1.974.441 21.274-.799 40.593-2.039 59.913-44.049 1.867-79.468 18.997-100.945 58.986-37.3 69.451-3.976 147.822 71.864 168.331 11.656 3.152 24.565 1.67 38.576 4.328 1.683 21.353 1.684 40.709 1.685 60.064zm496.022-353.048c83.515-8.74 164.567 63.207 179.611 146.413C962 688.741 898.565 780.64 814.658 798.615c-12.422 2.662-27.304 2.501-38.93-1.922-15.212-5.789-12.122-23.316-8.658-34.39 2.65-8.469 14.045-18.072 23.093-20.026 49.368-10.657 82.958-39.637 92.925-87.925 7.474-36.213 3.303-71.498-27.203-102.823-25.567-26.254-52.111-38.045-88.312-39.607-1.66-21.538-1.657-41.119-1.655-60.699zm-505.613 61.868c-.349-19.849.891-39.168 2.133-60.183 11.534-1.695 23.066-1.695 35.813-1.695 16.737-70.844 55.973-127.639 126.838-159.446 1.408 15.751.724 29.99 1.755 44.103.481 6.591 4.28 12.94 6.576 19.398-48.533 31.298-74.765 74.805-74.135 133.564.29 27.061-17.96 39.42-44.808 33.105-17.227-4.052-35.036-5.629-54.172-8.846zm504.02-62.13c1.591 19.842 1.588 39.423 1.589 60.704-16.802 4.548-33.833 6.465-50.361 10.462-23.863 5.772-38.07-4.453-39.284-28.318-3.098-60.899-27.991-109.462-81.554-142.814 1.434-22.825 2.429-43.746 3.425-64.668 68.761 28.735 111.103 80.212 130.422 151.508l3.916 14.463c11.115-.587 20.685-1.093 31.847-1.337zM463.837 742.105c66.321-.209 132.642-.672 198.961-.473 20.403.061 36.017 14.754 35.985 31.797-.033 17.655-16.544 31.44-38.067 31.448-64.472.027-128.945-.061-195.154-2.056-1.732-21.54-1.728-41.128-1.725-60.716zm-1.731-.265c1.728 19.853 1.724 39.441 1.726 60.731-63.487 1.871-126.981 2.041-192.205 1.955-1.732-19.61-1.733-38.966-1.74-59.966 63.492-2.091 126.99-2.538 192.219-2.72zm135.259-456.676c-.221 22.085-1.216 43.006-3.614 64.926-54.169-24.673-106.476-25.551-159.275 4.544-3.352-5.824-7.151-12.173-7.632-18.764-1.031-14.113-.347-28.352-.407-44.315 55.804-29.797 112.676-27.583 170.928-6.391zm112.288 54.559c.556-.835 1.197-1.406 1.652-2.1 1.984-3.013 4.99-4.471 8.268-5.515 6.046-1.921 12.106-3.79 18.144-5.733 9.864-3.177 19.702-6.425 29.581-9.558 1.209-.384 1.85-1.022 2.212-2.137 2.92-9.062 5.848-18.125 8.775-27.187 2.469-7.642 4.957-15.28 7.407-22.929 1.316-4.106 6.314-7.612 10.595-7.802 6.031-.265 10.968 3.73 12.688 9.402 4.091 13.489 8.652 26.841 13.026 40.244.851 2.614 1.85 5.188 2.536 7.843.407 1.578 1.201 2.141 2.719 2.614 8.145 2.548 16.223 5.296 24.338 7.944 8.377 2.734 16.749 5.475 25.151 8.126 4.177 1.321 7.731 6.415 7.884 10.752.202 5.908-3.699 10.804-9.331 12.531-13.545 4.155-26.971 8.708-40.445 13.105-2.883.94-5.769 1.861-8.63 2.864-.474.165-1.029.634-1.182 1.086-4.971 14.921-9.943 29.839-14.798 44.797-1.086 3.342-1.585 6.889-3.987 9.674-1.958 2.268-4.289 3.842-7.392 3.987-3.476.161-6.765-.022-9.644-2.554-2.368-2.085-3.454-4.729-4.378-7.534-1.787-5.426-3.506-10.875-5.259-16.309-3.353-10.405-6.731-20.802-10.036-31.226-.373-1.186-.969-1.868-2.111-2.234-9.062-2.912-18.117-5.851-27.18-8.771-7.238-2.335-14.473-4.684-21.731-6.967-3.617-1.137-6.388-3.2-8.04-6.672-.112-.238-.385-.403-.709-.466-.123-2.935-.123-6.004-.123-9.275zm223.764-69.028c-.048.15-.093.097-.141.041-2.887 3.957-7.519 4.468-11.688 5.844a1104 1104 0 0 1-21.664 6.959c-1.511.463-2.331 1.183-2.797 2.686-2.014 6.507-4.121 12.985-6.21 19.471a1062 1062 0 0 1-2.946 8.999c-1.264 3.819-3.17 5.158-7.31 5.154-3.449 0-5.516-1.566-6.683-5.117-3.196-9.737-6.362-19.486-9.614-29.209-.209-.634-.925-1.338-1.559-1.551-9.656-3.233-19.337-6.381-29.011-9.562-4.013-1.32-5.27-3.107-5.266-7.418.004-3.379 1.592-5.4 5.221-6.59 9.342-3.058 18.669-6.168 28.053-9.103 1.771-.552 2.547-1.339 3.08-3.129 1.902-6.392 4.069-12.706 6.139-19.05.828-2.532 1.82-5.027 2.469-7.604.671-2.678 1.987-4.789 4.124-6.437 2.059-.12 4.252-.12 6.516 0 1.816 1.473 3.211 2.953 3.916 5.243 2.472 8.052 5.508 15.943 7.682 24.07 1.249 4.658 3.435 7.097 8.194 8.231 6.336 1.51 12.474 3.841 18.676 5.9 3.845 1.275 8.078 1.857 10.678 5.553l.141-.168zm-52.241 168.029c-.149-.049-.093-.093-.037-.142-4.151-2.983-4.476-7.902-6.064-12.15-1.388-3.704-2.417-7.541-3.745-11.267-.253-.72-1.048-1.506-1.767-1.76-6.076-2.107-12.192-4.102-18.293-6.127-3.853-1.28-5.259-3.156-5.259-7.03 0-3.842 1.406-5.706 5.289-6.997 6.101-2.029 12.217-4.02 18.292-6.131.716-.25 1.496-1.059 1.746-1.783 2.107-6.075 4.091-12.191 6.123-18.289 1.287-3.86 3.167-5.243 7.06-5.243 3.812 0 5.65 1.395 6.963 5.344 1.898 5.695 3.875 11.371 5.598 17.122.563 1.879 1.477 2.797 3.315 3.36 5.807 1.779 11.528 3.834 17.342 5.587 3.047.921 5.445 3.744 5.247 6.914-.238 3.923-1.473 5.896-5.206 7.134-6.098 2.025-12.21 4.013-18.278 6.128-.772.268-1.626 1.104-1.898 1.868-1.973 5.594-3.927 11.2-5.628 16.879-.794 2.645-1.995 4.808-4.147 6.464-2.058.119-4.251.119-6.653.119zM732.824 274.399c-2.633-.026-5.113.376-7.116-1.615-1.991-1.984-2.808-5.523-1.727-8.127 1.253-3.005 3.152-4.24 6.497-4.247 2.185 0 4.367-.012 6.549-.026.13 0 .257-.09.597-.22 0-2.376-.004-4.826 0-7.28.007-4.095 2.707-6.46 7.358-6.456 3.99 0 6.623 2.592 6.627 6.519.004 2.394 0 4.789 0 7.466 2.614 0 5.131-.007 7.649 0 3.987.012 6.344 2.79 6.336 7.463-.004 3.83-2.64 6.515-6.411 6.519-2.457.007-4.915.004-7.574.004 0 2.629.004 5.083 0 7.537-.008 4.083-2.711 6.452-7.358 6.448-3.983-.004-6.624-2.599-6.627-6.519v-7.466z" mask="url(#blueMask)"/></svg>